<svg width="13" height="7" viewBox="0 0 13 7" fill="none" xmlns="http://www.w3.org/2000/svg">
<path fill-rule="evenodd" clip-rule="evenodd" d="M8.24476 0.205207C8.3854 0.0738132 8.57614 0 8.77501 0C8.97389 0 9.16462 0.0738132 9.30527 0.205207L12.3053 3.00871C12.4459 3.14015 12.5249 3.31838 12.5249 3.50423C12.5249 3.69008 12.4459 3.86832 12.3053 3.99975L9.30527 6.80326C9.16382 6.93093 8.97436 7.00157 8.77771 6.99997C8.58106 6.99838 8.39295 6.92467 8.25389 6.79472C8.11483 6.66477 8.03596 6.48898 8.03425 6.30521C8.03254 6.12145 8.10814 5.9444 8.24476 5.81222L9.96453 4.20511L1.27491 4.20511C1.076 4.20511 0.885229 4.13127 0.744575 3.99983C0.603921 3.86839 0.524902 3.69012 0.524902 3.50423C0.524902 3.31835 0.603921 3.14008 0.744575 3.00864C0.885229 2.8772 1.076 2.80336 1.27491 2.80336L9.96453 2.80336L8.24476 1.19625C8.10415 1.06481 8.02516 0.886574 8.02516 0.700727C8.02516 0.514879 8.10415 0.336641 8.24476 0.205207Z" fill="white"/>
</svg>
