<svg width="33" height="33" viewBox="0 0 33 33" fill="none" xmlns="http://www.w3.org/2000/svg">
<circle cx="16.5" cy="16.5" r="16.5" fill="#C4C4C4"/>
<circle cx="16.5" cy="16.5" r="16.5" fill="url(#paint0_linear_50_1700)"/>
<path d="M24.3737 11.4216H21.9477C22.1455 11.0571 22.2044 10.6024 22.0924 10.1342C21.9178 9.40387 21.2662 8.55103 20.0042 8.55103C19.0742 8.55103 17.9501 9.33109 17.3628 9.79603C17.1898 9.93298 16.8283 10.2305 16.5 10.5705C16.1716 10.2305 15.8101 9.93298 15.6371 9.79603C15.0499 9.33105 13.9258 8.55103 12.9958 8.55103C11.7338 8.55103 11.0821 9.40387 10.9075 10.1342C10.7955 10.6024 10.8544 11.0571 11.0523 11.4216H8.62632C8.28097 11.4216 8 11.7026 8 12.0479V14.6053C8 14.9507 8.28097 15.2317 8.62632 15.2317H9.25653C9.37164 15.2317 9.4653 15.3253 9.4653 15.4404V23.8228C9.4653 24.1681 9.74627 24.4491 10.0916 24.4491H22.9084C23.2537 24.4491 23.5347 24.1681 23.5347 23.8228V15.4404C23.5347 15.3253 23.6284 15.2317 23.7435 15.2317H24.3737C24.719 15.2317 25 14.9507 25 14.6053V12.0479C25 11.7026 24.719 11.4216 24.3737 11.4216ZM19.6879 18.5878C19.1773 19.3641 16.9796 21.2102 16.5033 21.2102C16.037 21.2102 13.8192 19.3575 13.3121 18.5878C13.0582 18.2025 12.878 17.7772 12.9078 17.2184C12.9608 16.229 13.7697 15.412 14.7605 15.412C15.7789 15.412 16.3721 16.4987 16.5001 16.4987C16.6463 16.4987 17.2648 15.412 18.2397 15.412C19.2303 15.412 20.0392 16.229 20.0922 17.2184C20.122 17.7773 19.9424 18.2008 19.6879 18.5878Z" fill="#14131E"/>
<defs>
<linearGradient id="paint0_linear_50_1700" x1="4.17495e-06" y1="16" x2="19.5312" y2="32.2192" gradientUnits="userSpaceOnUse">
<stop stop-color="#21D4FD"/>
<stop offset="1" stop-color="#E40ECF"/>
</linearGradient>
</defs>
</svg>
