<svg width="12" height="20" viewBox="0 0 12 20" fill="none" xmlns="http://www.w3.org/2000/svg">
<path fill-rule="evenodd" clip-rule="evenodd" d="M10.679 12.5914C10.8855 12.8141 11.0015 13.1161 11.0015 13.431C11.0015 13.7458 10.8855 14.0478 10.679 14.2705L6.27349 19.0206C6.06695 19.2432 5.78686 19.3683 5.49482 19.3683C5.20277 19.3683 4.92268 19.2432 4.71614 19.0206L0.310635 14.2705C0.110011 14.0466 -0.00100194 13.7466 0.00150814 13.4352C0.00401727 13.1239 0.119848 12.826 0.324051 12.6059C0.528256 12.3857 0.804495 12.2608 1.09327 12.2581C1.38205 12.2554 1.66026 12.3751 1.86798 12.5914L4.39344 15.3144L4.39344 1.5558C4.39344 1.24085 4.50948 0.938804 4.71603 0.716101C4.92257 0.493399 5.20271 0.368286 5.49482 0.368286C5.78692 0.368286 6.06706 0.493399 6.27361 0.716101C6.48016 0.938804 6.59619 1.24085 6.59619 1.5558L6.59619 15.3144L9.12165 12.5914C9.32819 12.3688 9.60828 12.2437 9.90032 12.2437C10.1924 12.2437 10.4725 12.3688 10.679 12.5914Z" fill="#21D4FD"/>
</svg>
