<svg width="28" height="28" viewBox="0 0 28 28" fill="none" xmlns="http://www.w3.org/2000/svg">
<path d="M8.07631 9.50808C9.43584 7.71958 11.5852 6.5625 14 6.5625C15.9865 6.5625 17.8543 7.33611 19.2591 8.74087L19.8391 9.32088L24.4795 4.68054L23.8995 4.10052C21.2552 1.45627 17.7395 0 14 0C10.2604 0 6.74473 1.45627 4.10042 4.10047C3.8604 4.34055 3.63044 4.58795 3.41016 4.84187L8.07631 9.50808Z" fill="white"/>
<path d="M23.1581 24.5898C23.412 24.3696 23.6595 24.1396 23.8995 23.8996C26.5437 21.2553 28 17.7396 28 14C28 13.1483 27.9229 12.2949 27.7708 11.4638L27.6476 10.7912H13.1797V17.3537H20.6419C20.1258 18.3803 19.3876 19.2557 18.4982 19.93L23.1581 24.5898Z" fill="white"/>
<path d="M17.0407 20.7928C16.106 21.2097 15.0748 21.4376 14 21.4376C11.5852 21.4376 9.43584 20.2806 8.07631 18.4921L3.41016 23.1582C3.63044 23.4121 3.8604 23.6596 4.10042 23.8996C6.74473 26.5439 10.2604 28.0001 14 28.0001C16.8391 28.0001 19.5488 27.16 21.8465 25.5985L17.0407 20.7928Z" fill="white"/>
<path d="M7.21126 17.0369C6.79459 16.1092 6.5625 15.0812 6.5625 14.0001C6.5625 12.9189 6.79459 11.891 7.21126 10.9632L2.4016 6.15356C0.840164 8.45126 0 11.1609 0 14.0001C0 16.8392 0.840164 19.5489 2.4016 21.8466L7.21126 17.0369Z" fill="white"/>
</svg>
