<svg width="26" height="26" viewBox="0 0 26 26" fill="none" xmlns="http://www.w3.org/2000/svg">
<path d="M25.9934 26V25.9989H25.9999V16.4634C25.9999 11.7986 24.9956 8.20514 19.5421 8.20514C16.9205 8.20514 15.1611 9.64381 14.4429 11.0077H14.367V8.64064H9.19629V25.9989H14.5805V17.4037C14.5805 15.1406 15.0095 12.9523 17.812 12.9523C20.5735 12.9523 20.6146 15.535 20.6146 17.5489V26H25.9934Z" fill="white"/>
<path d="M0.429199 8.64172H5.81987V26H0.429199V8.64172Z" fill="white"/>
<path d="M3.12217 0C1.39858 0 0 1.39858 0 3.12217C0 4.84575 1.39858 6.27358 3.12217 6.27358C4.84575 6.27358 6.24433 4.84575 6.24433 3.12217C6.24325 1.39858 4.84467 0 3.12217 0V0Z" fill="white"/>
</svg>
