<svg width="11" height="12" viewBox="0 0 11 12" fill="none" xmlns="http://www.w3.org/2000/svg">
<path d="M8.27031 0.914513C8.41445 0.765278 8.58686 0.646243 8.77749 0.564354C8.96812 0.482465 9.17315 0.439362 9.38062 0.437559C9.58809 0.435756 9.79384 0.47529 9.98587 0.553854C10.1779 0.632418 10.3523 0.748438 10.4991 0.895146C10.6458 1.04185 10.7618 1.21631 10.8403 1.40833C10.9189 1.60036 10.9584 1.80611 10.9566 2.01358C10.9548 2.22105 10.9117 2.42608 10.8298 2.61671C10.748 2.80734 10.6289 2.97975 10.4797 3.12389L9.86016 3.74342L7.65078 1.53404L8.27031 0.914513ZM6.54609 2.63873L0 9.18482V11.3942H2.20938L8.75625 4.84811L6.54531 2.63873H6.54609Z" fill="black"/>
<path d="M8.27031 0.914513C8.41445 0.765278 8.58686 0.646243 8.77749 0.564354C8.96812 0.482465 9.17315 0.439362 9.38062 0.437559C9.58809 0.435756 9.79384 0.47529 9.98587 0.553854C10.1779 0.632418 10.3523 0.748438 10.4991 0.895146C10.6458 1.04185 10.7618 1.21631 10.8403 1.40833C10.9189 1.60036 10.9584 1.80611 10.9566 2.01358C10.9548 2.22105 10.9117 2.42608 10.8298 2.61671C10.748 2.80734 10.6289 2.97975 10.4797 3.12389L9.86016 3.74342L7.65078 1.53404L8.27031 0.914513ZM6.54609 2.63873L0 9.18482V11.3942H2.20938L8.75625 4.84811L6.54531 2.63873H6.54609Z" fill="url(#paint0_linear_50_3101)"/>
<defs>
<linearGradient id="paint0_linear_50_3101" x1="-7.97232e-07" y1="14.1094" x2="10.8433" y2="12.3886" gradientUnits="userSpaceOnUse">
<stop offset="0.209851" stop-color="#21D4FD"/>
<stop offset="1" stop-color="#E40ECF"/>
</linearGradient>
</defs>
</svg>
