<svg width="18" height="18" viewBox="0 0 18 18" fill="none" xmlns="http://www.w3.org/2000/svg">
<path d="M11.25 9.75C10.8352 9.75 10.5 10.086 10.5 10.5V13.5C10.5 13.9132 10.164 14.25 9.75 14.25H7.5V3C7.5 2.3595 7.092 1.78725 6.4785 1.57425L6.2565 1.5H9.75C10.164 1.5 10.5 1.83675 10.5 2.25V4.5C10.5 4.914 10.8352 5.25 11.25 5.25C11.6648 5.25 12 4.914 12 4.5V2.25C12 1.0095 10.9905 0 9.75 0H1.6875C1.659 0 1.635 0.01275 1.60725 0.0165C1.57125 0.0135 1.53675 0 1.5 0C0.67275 0 0 0.67275 0 1.5V15C0 15.6405 0.408 16.2127 1.0215 16.4257L5.535 17.9303C5.688 17.9775 5.84025 18 6 18C6.82725 18 7.5 17.3272 7.5 16.5V15.75H9.75C10.9905 15.75 12 14.7405 12 13.5V10.5C12 10.086 11.6648 9.75 11.25 9.75Z" fill="white"/>
<path d="M17.7802 6.96979L14.7802 3.96979C14.5657 3.75529 14.2432 3.69079 13.9627 3.80704C13.683 3.92329 13.5 4.19704 13.5 4.50004V6.75004H10.5C10.086 6.75004 9.74997 7.08604 9.74997 7.50004C9.74997 7.91404 10.086 8.25004 10.5 8.25004H13.5V10.5C13.5 10.803 13.683 11.0768 13.9627 11.193C14.2432 11.3093 14.5657 11.2448 14.7802 11.0303L17.7802 8.03029C18.0735 7.73704 18.0735 7.26304 17.7802 6.96979Z" fill="white"/>
</svg>
